<svg width="46" height="44" viewBox="0 0 46 44" fill="none" xmlns="http://www.w3.org/2000/svg">
<g id="iconoir:design-nib">
<g id="Group">
<path id="Vector" d="M6.56029 37.7703L18.4928 26.1029M33.519 20.9146L29.9472 31.3921C29.8902 31.5601 29.7926 31.7121 29.6627 31.8353C29.5327 31.9585 29.3743 32.0492 29.2009 32.0998L7.30466 38.4633C7.1074 38.5206 6.89784 38.5238 6.6988 38.4728C6.49975 38.4217 6.31885 38.3182 6.17578 38.1736C6.0327 38.029 5.93294 37.8487 5.88734 37.6525C5.84174 37.4563 5.85206 37.2517 5.91717 37.0608L13.0272 16.2084C13.0781 16.0587 13.1614 15.9215 13.2714 15.806C13.3814 15.6906 13.5155 15.5996 13.6647 15.5393L23.7653 11.4729C23.9706 11.39 24.1965 11.3684 24.4144 11.4108C24.6323 11.4532 24.8325 11.5578 24.9897 11.7113L33.2472 19.7889C33.3949 19.9334 33.4986 20.1152 33.5466 20.314C33.5947 20.5128 33.5851 20.7208 33.519 20.9146Z" stroke="#0F1F6C" stroke-width="1.5" stroke-linecap="round" stroke-linejoin="round"/>
<path id="Vector_2" d="M33.7398 20.2696L39.0423 15.0831C39.7453 14.3955 40.1402 13.463 40.1402 12.4907C40.1402 11.5185 39.7453 10.586 39.0423 9.89839L35.0673 6.00806C34.719 5.66742 34.3056 5.3972 33.8505 5.21284C33.3954 5.02848 32.9077 4.93359 32.4151 4.93359C31.9225 4.93359 31.4347 5.02848 30.9797 5.21284C30.5246 5.3972 30.1111 5.66742 29.7629 6.00806L24.4604 11.1946M22.4691 22.2129C22.2079 21.9576 21.8978 21.7551 21.5565 21.6169C21.2152 21.4788 20.8494 21.4077 20.48 21.4078C20.1107 21.4079 19.7449 21.4791 19.4037 21.6174C19.0625 21.7557 18.7525 21.9584 18.4913 22.2138C18.2302 22.4693 18.0231 22.7725 17.8818 23.1062C17.7405 23.4399 17.6679 23.7975 17.668 24.1587C17.6681 24.5199 17.7409 24.8775 17.8823 25.2111C18.0238 25.5448 18.231 25.8479 18.4923 26.1032C19.0199 26.6189 19.7354 26.9085 20.4814 26.9083C21.2274 26.9081 21.9427 26.6182 22.4701 26.1023C22.9974 25.5864 23.2936 24.8868 23.2934 24.1574C23.2933 23.428 22.9968 22.7285 22.4691 22.2129Z" stroke="#0F1F6C" stroke-width="1.5" stroke-linecap="round" stroke-linejoin="round"/>
</g>
</g>
</svg>
