<svg width="30" height="42" viewBox="0 0 30 42" fill="none" xmlns="http://www.w3.org/2000/svg">
<g id="Group 56">
<g id="Group 53">
<path id="Subtract" fill-rule="evenodd" clip-rule="evenodd" d="M13.4844 41.0884C13.8619 41.1135 14.2381 41.1275 14.6076 41.1341C15.9861 41.1588 17.555 41.1452 18.9159 40.8352C20.2283 40.5363 21.4213 39.9442 22.0278 38.7701C26.3611 36.9942 29.2189 33.5768 29.2189 29.5653H29.204L29.2047 29.5354C29.2055 29.4908 29.2061 29.4269 29.2053 29.3472C29.2038 29.1879 29.1969 28.9645 29.1752 28.7055C29.1323 28.1932 29.0298 27.5173 28.7827 26.9215C28.3579 25.8972 28.0118 25.3367 27.4313 24.5329L27.1975 24.7017L27.4094 24.4892L27.4092 24.4891L27.4084 24.4882L27.4047 24.4846L27.3894 24.4691C27.3757 24.4553 27.3551 24.4344 27.3282 24.4068C27.2742 24.3516 27.1946 24.2693 27.0931 24.1623C26.8902 23.9482 26.5998 23.6352 26.2518 23.2412C25.5555 22.4527 24.6307 21.3421 23.7154 20.0527C22.7992 18.7622 21.8977 17.2997 21.2432 15.8072C20.5874 14.3115 20.1901 12.809 20.2558 11.4311C20.3267 9.94416 20.978 8.0902 21.6317 6.57999C21.9559 5.83097 22.2757 5.1776 22.5145 4.71158C22.6338 4.47869 22.7327 4.29292 22.8016 4.16574C22.836 4.10216 22.8629 4.05326 22.8811 4.02045L22.9016 3.98352L22.9067 3.97446L22.9079 3.97234L22.9082 3.97189L22.9082 3.97184L22.9082 3.97181L22.9543 3.89027V3.79654C22.9543 3.30564 22.6713 2.86606 22.2652 2.50216C21.8547 2.13427 21.2772 1.80458 20.5837 1.52807C19.1942 0.974005 17.2744 0.60791 15.1035 0.60791C15.0076 0.60791 14.9121 0.608626 14.8171 0.610041V1.3221C14.912 1.32063 15.0075 1.31989 15.1035 1.31989C17.2019 1.31989 19.0295 1.67481 20.32 2.18942C20.9666 2.44725 21.4624 2.7388 21.7901 3.0324C22.0797 3.29191 22.2081 3.52446 22.2363 3.71528C22.2196 3.74556 22.1992 3.78286 22.1755 3.82674C22.1043 3.95816 22.0029 4.14874 21.8808 4.38693C21.6369 4.86307 21.31 5.53071 20.9783 6.29717C20.32 7.81792 19.6221 9.77276 19.5446 11.3972C19.4716 12.9272 19.9122 14.5447 20.5912 16.0931C21.2715 17.6447 22.2018 19.1505 23.1348 20.4648C24.0686 21.7802 25.0103 22.9109 25.7182 23.7125C26.0723 24.1135 26.3684 24.4327 26.5765 24.6522C26.6805 24.7619 26.7626 24.8467 26.8188 24.9043L26.8595 24.9458L26.8541 24.9497C27.4099 25.7194 27.7258 26.2317 28.1251 27.1943C28.3312 27.6912 28.4253 28.2829 28.4657 28.7649C28.4856 29.0031 28.492 29.2086 28.4934 29.3539C28.494 29.4265 28.4935 29.4838 28.4928 29.5224C28.4924 29.5417 28.4921 29.5562 28.4918 29.5657L28.4914 29.576L28.4913 29.5781L28.4913 29.5783C28.4913 29.5783 28.4913 29.5782 28.5069 29.5789C28.4974 34.8988 22.8476 39.3656 15.0778 39.3656C14.9907 39.3656 14.9038 39.365 14.8171 39.3639V40.076C14.9038 40.077 14.9907 40.0776 15.0778 40.0776C17.1184 40.0776 19.0418 39.7745 20.7741 39.2245C20.2653 39.6644 19.5742 39.9551 18.7578 40.141C17.55 40.4161 16.1398 40.4447 14.8171 40.4255V41.0884H13.4844Z" fill="white"/>
<path id="Subtract_2" fill-rule="evenodd" clip-rule="evenodd" d="M16.4023 41.0883C16.0242 41.1135 15.6474 41.1275 15.2773 41.1341C13.8988 41.1588 12.3299 41.1452 10.969 40.8352C9.65658 40.5363 8.4636 39.9442 7.85708 38.7701C3.52381 36.9942 0.665944 33.5768 0.665944 29.5653H0.680869L0.680232 29.5354C0.679421 29.4908 0.678821 29.4269 0.67958 29.3472C0.681094 29.1879 0.688033 28.9645 0.709722 28.7055C0.752622 28.1932 0.855052 27.5173 1.10217 26.9215C1.52703 25.8972 1.87312 25.3367 2.45359 24.5329L2.68734 24.7017L2.4755 24.4892L2.47565 24.4891L2.47648 24.4882L2.48016 24.4846L2.49548 24.4691C2.50918 24.4553 2.52974 24.4344 2.55672 24.4068C2.61068 24.3516 2.69026 24.2693 2.79174 24.1623C2.9947 23.9482 3.2851 23.6352 3.63305 23.2412C4.32934 22.4527 5.25415 21.3421 6.16952 20.0527C7.08564 18.7622 7.98722 17.2997 8.64167 15.8072C9.2975 14.3115 9.69482 12.809 9.62908 11.4311C9.55813 9.94416 8.90693 8.0902 8.25323 6.57999C7.92902 5.83097 7.60917 5.1776 7.37041 4.71158C7.2511 4.47869 7.15219 4.29292 7.08333 4.16574C7.04891 4.10216 7.022 4.05326 7.00383 4.02045L6.98326 3.98352L6.97817 3.97446L6.97698 3.97234L6.97672 3.97189L6.9767 3.97184L6.97668 3.97181L6.93054 3.89027V3.79654C6.93054 3.30564 7.21356 2.86606 7.61968 2.50216C8.03023 2.13427 8.6077 1.80458 9.30115 1.52807C10.6907 0.974005 12.6105 0.60791 14.7813 0.60791C14.8773 0.60791 14.9728 0.608626 15.0678 0.610041V1.3221C14.9729 1.32063 14.8774 1.31989 14.7813 1.31989C12.683 1.31989 10.8554 1.67481 9.56485 2.18942C8.91824 2.44725 8.42248 2.7388 8.09481 3.0324C7.8052 3.29191 7.67675 3.52446 7.64862 3.71528C7.66527 3.74556 7.68566 3.78286 7.70942 3.82674C7.78058 3.95816 7.88203 4.14874 8.00407 4.38693C8.24801 4.86307 8.57487 5.53071 8.90663 6.29717C9.56489 7.81792 10.2627 9.77276 10.3402 11.3972C10.4132 12.9272 9.97271 14.5447 9.29372 16.0931C8.61334 17.6447 7.68311 19.1505 6.75008 20.4648C5.81631 21.7802 4.87464 22.9109 4.16672 23.7125C3.81257 24.1135 3.51644 24.4327 3.3084 24.6522C3.20437 24.7619 3.12233 24.8467 3.06605 24.9043L3.02535 24.9458L3.0308 24.9497C2.47496 25.7194 2.15905 26.2317 1.75982 27.1943C1.55372 27.6912 1.45958 28.2829 1.41922 28.7649C1.39927 29.0031 1.39291 29.2086 1.39153 29.3539C1.39084 29.4265 1.39139 29.4838 1.39209 29.5224C1.39245 29.5417 1.39283 29.5562 1.39312 29.5657L1.39346 29.576L1.39354 29.5781L1.39355 29.5783C1.39355 29.5783 1.39354 29.5782 1.37794 29.5789C1.3875 34.8988 7.03727 39.3656 14.8071 39.3656C14.8942 39.3656 14.9811 39.365 15.0678 39.3639V40.076C14.9811 40.077 14.8942 40.0776 14.8071 40.0776C12.7665 40.0776 10.8431 39.7745 9.11083 39.2245C9.61954 39.6644 10.3107 39.9551 11.1271 40.141C12.3349 40.4161 13.7451 40.4447 15.0678 40.4255V41.0883H16.4023Z" fill="white"/>
</g>
</g>
</svg>
