<svg width="40" height="96" viewBox="0 0 40 96" fill="none" xmlns="http://www.w3.org/2000/svg">
<g id="Group 279">
<path id="Vector" d="M27.882 75.8726C27.8777 75.9443 27.855 76.0137 27.816 76.0743C27.777 76.1349 27.723 76.1846 27.659 76.2188C27.0597 76.4306 26.4968 76.7321 25.99 77.1126C25.8626 77.2133 25.7351 77.3203 25.6077 77.4336C24.7933 78.1869 24.2479 79.1807 24.0533 80.266C23.9067 81.1595 23.9545 82.0736 24.1935 82.9473C24.254 83.1795 24.3263 83.4085 24.4101 83.6334C24.7892 84.6172 25.3607 85.5176 26.0919 86.2833C26.1561 86.3501 26.1908 86.4393 26.1884 86.5314C26.186 86.6235 26.1467 86.7108 26.0791 86.7743C26.0116 86.8377 25.9213 86.872 25.8281 86.8697C25.7349 86.8673 25.6465 86.8284 25.5823 86.7617C24.7907 85.9248 24.1718 84.9435 23.7603 83.8726C23.6473 83.5697 23.5516 83.2608 23.4736 82.9473C23.2902 82.1702 23.2385 81.3683 23.3207 80.5744C23.2761 80.5744 23.2506 80.4926 23.2188 80.4486L22.0211 77.1126C18.6235 67.667 15.2259 58.2131 11.8283 48.7507C11.7206 48.5115 11.6538 48.2562 11.6309 47.9954C11.6526 47.7167 11.7238 47.444 11.8411 47.1897C15.2387 37.7525 18.6363 28.3111 22.0339 18.8656L23.2315 15.5296C23.2531 15.4791 23.2883 15.4356 23.3335 15.4037C23.2512 14.6098 23.3029 13.808 23.4863 13.0308C23.5643 12.7174 23.6601 12.4084 23.773 12.1055C24.1845 11.0347 24.8034 10.0534 25.595 9.2165C25.6592 9.14973 25.7476 9.11087 25.8408 9.10851C25.934 9.10615 26.0243 9.14047 26.0919 9.2039C26.1595 9.26734 26.1988 9.3547 26.2012 9.44677C26.2036 9.53885 26.1688 9.62806 26.1046 9.69483C25.3721 10.4595 24.8004 11.3602 24.4228 12.3447C24.3391 12.5697 24.2668 12.7987 24.2062 13.0308C23.9673 13.9025 23.9196 14.8145 24.0661 15.7059C24.2607 16.793 24.806 17.7888 25.6205 18.5446C25.7479 18.6578 25.8753 18.7523 26.0027 18.8656C26.511 19.2438 27.0735 19.5451 27.6718 19.7594C27.7357 19.7936 27.7897 19.8433 27.8287 19.9039C27.8677 19.9644 27.8905 20.0339 27.8947 20.1056C27.8456 20.6391 27.9084 21.177 28.0795 21.6854C28.2521 22.1573 28.5259 22.5867 28.8822 22.9443C28.9597 23.0495 28.9918 23.1807 28.9714 23.3093L21.6835 44.842C22.2459 45.387 22.6486 46.072 22.8493 46.8247C22.9088 47.0869 22.9345 47.3554 22.9257 47.624H22.8238C22.8238 47.7499 22.8811 47.8758 22.8939 47.9828C22.8767 48.1014 22.8533 48.219 22.8238 48.3353H22.9257C22.9354 48.6122 22.9097 48.8892 22.8493 49.1598C22.6486 49.9124 22.2459 50.5975 21.6835 51.1425L28.9714 72.6751C28.9918 72.8037 28.9597 72.935 28.8822 73.0402C28.5259 73.3978 28.2521 73.8272 28.0795 74.2991C27.905 74.8046 27.8378 75.3403 27.882 75.8726ZM27.417 74.0725C27.5978 73.5722 27.877 73.1122 28.2387 72.7192L20.9318 51.1677C20.9157 51.0375 20.9523 50.9062 21.0337 50.8026C21.5797 50.3296 21.9721 49.7077 22.1613 49.0151C22.2252 48.6781 22.2252 48.3323 22.1613 47.9954C22.225 47.6648 22.225 47.3252 22.1613 46.9946C21.9695 46.2994 21.5778 45.6742 21.0337 45.1944C20.9928 45.1459 20.9626 45.0895 20.9451 45.0288C20.9275 44.9681 20.923 44.9045 20.9318 44.842L28.2387 23.2904C27.877 22.8974 27.5978 22.4374 27.417 21.9372C27.2431 21.4243 27.1611 20.8854 27.1749 20.3447C26.4206 20.053 25.7274 19.6263 25.1299 19.0859L24.9579 18.9222C24.3234 18.2871 23.8498 17.5129 23.5755 16.6626C23.308 17.4116 23.0404 18.1669 22.7538 18.9222L13.0515 45.8427C12.5291 47.2967 12.2743 47.6303 12.287 48.0205C12.4534 48.6979 12.686 49.3577 12.9814 49.9907L22.7538 77.1378L23.5755 79.3974C23.8498 78.5471 24.3234 77.7729 24.9579 77.1378L25.1299 76.9741C25.7274 76.4337 26.4206 76.007 27.1749 75.7153C27.1551 75.1577 27.2371 74.6013 27.417 74.0725Z" fill="white"/>
<path id="Vector_2" d="M29.473 77.1144L29.4284 77.2844C28.5829 77.2982 27.7588 77.5492 27.0522 78.0082C26.6233 78.3295 26.2656 78.7343 26.0016 79.1977C25.7375 79.6611 25.5725 80.1732 25.5169 80.7021C25.3953 81.2962 25.3953 81.9083 25.5169 82.5023C25.5468 82.6533 25.5851 82.8024 25.6316 82.9492C25.817 83.5347 26.1351 84.0707 26.5617 84.5165C27.1071 85.0507 27.8095 85.4009 28.5684 85.5173C29.0717 85.6028 29.5873 85.5878 30.0846 85.4732C30.5656 85.4217 31.0258 85.2518 31.4231 84.9791C31.8204 84.7064 32.1422 84.3396 32.3589 83.9122C32.4549 83.6483 32.4833 83.3651 32.4416 83.0877L32.3971 82.9492C32.328 82.7371 32.2078 82.5449 32.0467 82.389C31.8174 82.1966 31.5469 82.0581 31.2556 81.9839C30.9643 81.9098 30.6597 81.9019 30.3649 81.961C30.4148 81.7534 30.5135 81.5603 30.6529 81.3974C30.7924 81.2345 30.9687 81.1063 31.1675 81.0232C31.396 80.9335 31.6432 80.9011 31.8874 80.9288C32.1535 80.9384 32.4143 81.005 32.6519 81.1239C32.9968 81.2967 33.2892 81.5566 33.4996 81.8772C33.7099 82.1978 33.8306 82.5676 33.8495 82.9492V83.201C33.8941 83.759 33.8015 84.3194 33.5797 84.8345C33.3578 85.3495 33.0133 85.8041 32.5754 86.1593C31.5066 86.8265 30.2502 87.1396 28.9888 87.0531C28.9229 87.063 28.8599 87.0866 28.8038 87.1224C28.7478 87.1582 28.7001 87.2054 28.6639 87.2608C28.1845 88.3457 27.4051 89.2751 26.4152 89.9421C25.3588 90.5929 24.1542 90.9716 22.9114 91.0436C22.7062 89.1874 22.2785 87.3619 21.6373 85.6054L20.7072 82.9492L18.6559 77.1144L9.95381 52.3969C7.72414 53.1774 5.76842 53.0641 4.44336 50.7226C4.88937 50.3652 5.23942 49.9048 5.46262 49.382C5.91168 49.9719 6.55072 50.3931 7.27446 50.5761C7.99821 50.7592 8.76347 50.6932 9.44418 50.389C8.95884 49.6871 8.69919 48.8568 8.69919 48.0067C8.69919 47.1566 8.95884 46.3262 9.44418 45.6243C8.76347 45.3201 7.99821 45.2542 7.27446 45.4372C6.55072 45.6203 5.91168 46.0414 5.46262 46.6313C5.23942 46.1086 4.88937 45.6481 4.44336 45.2907C5.76842 42.9492 7.72414 42.8359 9.95381 43.6164L18.6559 18.8989L20.7072 13.0641L21.6373 10.4079C22.2785 8.65145 22.7062 6.82593 22.9114 4.96973C24.1547 5.03882 25.3601 5.41776 26.4152 6.07122C27.4051 6.73827 28.1845 7.66759 28.6639 8.75254C28.7001 8.8079 28.7478 8.85507 28.8038 8.89088C28.8599 8.92669 28.9229 8.95032 28.9888 8.96026C30.2502 8.8737 31.5066 9.18678 32.5754 9.85403C33.0133 10.2093 33.3578 10.6638 33.5797 11.1788C33.8015 11.6939 33.8941 12.2543 33.8495 12.8123V13.0641C33.8306 13.4457 33.7099 13.8156 33.4996 14.1362C33.2892 14.4568 32.9968 14.7166 32.6519 14.8894C32.4143 15.0083 32.1535 15.0749 31.8874 15.0846C31.6433 15.1059 31.3975 15.0737 31.1675 14.9902C30.9687 14.907 30.7924 14.7788 30.6529 14.6159C30.5135 14.453 30.4148 14.2599 30.3649 14.0523C30.6602 14.112 30.9653 14.1038 31.2569 14.0285C31.5485 13.9532 31.8187 13.8128 32.0467 13.618C32.2087 13.4654 32.3293 13.2749 32.3971 13.0641L32.4416 12.9256C32.4833 12.6482 32.4549 12.365 32.3589 12.1011C32.1416 11.6736 31.8198 11.3064 31.4227 11.0328C31.0256 10.7591 30.5657 10.5876 30.0846 10.5338C29.5864 10.4246 29.0715 10.4118 28.5684 10.4961C27.8078 10.6073 27.104 10.9583 26.5617 11.4969C26.1351 11.9426 25.817 12.4786 25.6316 13.0641C25.5851 13.2109 25.5468 13.3601 25.5169 13.511C25.3953 14.105 25.3953 14.7171 25.5169 15.3112C25.5725 15.8401 25.7375 16.3522 26.0016 16.8156C26.2656 17.279 26.6233 17.6839 27.0522 18.0051C27.7588 18.4641 28.5829 18.7152 29.4284 18.729L29.473 18.8989C29.6207 19.6706 30.0295 20.3698 30.6324 20.8816C31.1032 21.24 31.6397 21.505 32.2123 21.6621C29.5707 29.341 26.9376 37.0221 24.3129 44.7053C25.0908 45.4881 25.5451 46.5296 25.587 47.6259V47.7454V48.249V48.3623C25.5514 49.4673 25.0967 50.5188 24.3129 51.308C26.9461 58.987 29.5792 66.6681 32.2123 74.3513C31.6407 74.5109 31.1047 74.7757 30.6324 75.1317C30.0295 75.6436 29.6207 76.3427 29.473 77.1144ZM28.0715 74.2946C28.2441 73.8227 28.5179 73.3933 28.8742 73.0358C28.9517 72.9305 28.9838 72.7993 28.9634 72.6707L21.6755 51.1381C22.2379 50.593 22.6407 49.908 22.8413 49.1553C22.9018 48.8848 22.9275 48.6077 22.9178 48.3308H22.8158C22.8453 48.2146 22.8687 48.0969 22.8859 47.9783C22.8859 47.8713 22.8413 47.7454 22.8158 47.6196H22.9178C22.9265 47.351 22.9009 47.0824 22.8413 46.8202C22.6407 46.0676 22.2379 45.3825 21.6755 44.8375L28.9634 23.3048C28.9838 23.1763 28.9517 23.045 28.8742 22.9398C28.5179 22.5823 28.2441 22.1528 28.0715 21.681C27.9004 21.1725 27.8376 20.6347 27.8868 20.1011C27.8825 20.0294 27.8598 19.96 27.8208 19.8994C27.7818 19.8388 27.7277 19.7891 27.6638 19.7549C27.0656 19.5406 26.503 19.2393 25.9947 18.8611C25.8673 18.7478 25.7399 18.6534 25.6125 18.5401C24.798 17.7843 24.2527 16.7886 24.0581 15.7014C23.9116 14.81 23.9594 13.898 24.1982 13.0264C24.2588 12.7942 24.3311 12.5652 24.4148 12.3403C24.7925 11.3557 25.3641 10.4551 26.0967 9.69042C26.1284 9.65735 26.1533 9.61842 26.1699 9.57586C26.1864 9.53329 26.1944 9.48791 26.1932 9.44232C26.192 9.39673 26.1817 9.3518 26.163 9.31013C26.1442 9.26845 26.1174 9.23086 26.0839 9.19945C26.0504 9.16804 26.011 9.14343 25.968 9.12707C25.9249 9.1107 25.8789 9.10289 25.8328 9.10406C25.7867 9.10523 25.7412 9.11538 25.699 9.13391C25.6569 9.15243 25.6188 9.17898 25.587 9.21205C24.7954 10.0489 24.1765 11.0302 23.765 12.1011C23.6521 12.404 23.5564 12.7129 23.4784 13.0264C23.2949 13.8035 23.2432 14.6054 23.3255 15.3993C23.2804 15.4311 23.2451 15.4747 23.2236 15.5252L22.0259 18.8611C18.6283 28.2857 15.2307 37.7271 11.8331 47.1852C11.7158 47.4396 11.6446 47.7123 11.6229 47.9909C11.6458 48.2518 11.7126 48.507 11.8204 48.7462C15.218 58.2128 18.6156 67.6668 22.0131 77.1081L23.2108 80.4441C23.2427 80.4882 23.2682 80.5448 23.3128 80.57C23.2305 81.3639 23.2822 82.1657 23.4656 82.9429C23.5436 83.2564 23.6394 83.5653 23.7523 83.8682C24.1638 84.939 24.7827 85.9203 25.5743 86.7572C25.6385 86.824 25.7269 86.8628 25.8201 86.8652C25.9133 86.8676 26.0036 86.8332 26.0711 86.7698C26.1387 86.7064 26.1781 86.619 26.1804 86.5269C26.1828 86.4349 26.1481 86.3457 26.0839 86.2789C25.3527 85.5132 24.7812 84.6128 24.4021 83.629C24.3183 83.404 24.2461 83.175 24.1855 82.9429C23.9465 82.0691 23.8987 81.155 24.0453 80.2616C24.24 79.1762 24.7853 78.1825 25.5997 77.4292C25.7271 77.3159 25.8546 77.2089 25.982 77.1081C26.4888 76.7276 27.0517 76.4262 27.6511 76.2143C27.715 76.1802 27.769 76.1304 27.808 76.0699C27.847 76.0093 27.8698 75.9398 27.874 75.8682C27.8277 75.3362 27.8928 74.8006 28.0651 74.2946H28.0715Z" fill="white"/>
<path id="Vector_3" d="M31.0598 20.371C30.616 19.994 30.3058 19.4868 30.1743 18.9233C30.1232 18.7394 30.0849 18.5522 30.0596 18.3631C30.0421 18.2855 29.9999 18.2154 29.9391 18.1633C29.8783 18.1112 29.8022 18.0797 29.722 18.0735C28.9162 18.1015 28.1216 17.8816 27.4477 17.4441C27.0907 17.176 26.7933 16.8382 26.5741 16.4516C26.3549 16.065 26.2186 15.638 26.1736 15.1971C26.0811 14.685 26.0811 14.1608 26.1736 13.6487C26.2106 13.449 26.2661 13.2531 26.3393 13.0633C26.4939 12.6615 26.7302 12.2952 27.0336 11.987C27.4643 11.5443 28.0309 11.2545 28.6454 11.1625C29.0693 11.1003 29.5011 11.1153 29.9195 11.2065C30.2856 11.2361 30.6381 11.3566 30.9444 11.5569C31.2507 11.7572 31.5008 12.0307 31.6714 12.3521C31.7265 12.4944 31.7419 12.6487 31.716 12.799C31.6989 12.8946 31.6597 12.9851 31.6013 13.0633L31.5312 13.1326C31.3125 13.2857 31.0579 13.3811 30.7915 13.4097C30.525 13.4384 30.2556 13.3993 30.0087 13.2962C29.9564 13.2826 29.9017 13.2811 29.8487 13.2919C29.7958 13.3027 29.7461 13.3255 29.7035 13.3584C29.6609 13.3913 29.6267 13.4335 29.6033 13.4817C29.58 13.5298 29.5683 13.5827 29.5691 13.6361C29.5591 14.059 29.6791 14.4749 29.9134 14.829C30.1477 15.183 30.4853 15.4584 30.8814 15.6188C31.2095 15.7457 31.5615 15.8012 31.9132 15.7817C32.265 15.7621 32.6084 15.668 32.92 15.5055C33.3843 15.279 33.7777 14.9322 34.0582 14.5021C34.3387 14.072 34.4957 13.5747 34.5126 13.0633V12.8116C34.5567 12.1475 34.4391 11.4827 34.1698 10.8727C33.9005 10.2628 33.4872 9.72543 32.9646 9.30565C31.8325 8.57078 30.4956 8.20535 29.1423 8.26082C28.611 7.14106 27.7807 6.1857 26.7406 5.49764C25.5919 4.77805 24.2763 4.35994 22.9183 4.28285C22.9812 3.07948 22.8566 1.8737 22.5488 0.707721C23.0801 0.598856 23.6188 0.529414 24.1605 0.5H25.0078C27.9191 0.651062 29.6583 2.38828 30.6712 5.06333C34.1368 5.11998 36.1435 6.8383 36.6786 10.2435C37.6883 10.952 38.4727 11.9302 38.9401 13.0633C39.8129 15.3356 38.7235 17.6393 35.4045 18.0169C35.3857 18.3135 35.3431 18.6082 35.2771 18.8981C35.1821 19.4889 34.8907 20.0318 34.4489 20.4409C34.0071 20.8501 33.4401 21.1022 32.8372 21.1577C32.8372 21.1577 32.7926 21.1577 32.7798 21.1577C32.159 21.0119 31.574 20.7444 31.0598 20.371Z" fill="white"/>
<path id="Vector_4" d="M22.625 95.3055C22.9328 94.1395 23.0574 92.9337 22.9945 91.7304C24.3519 91.6505 25.6668 91.2326 26.8168 90.5156C27.8573 89.8226 28.6875 88.8632 29.2184 87.7398C30.5712 87.8059 31.9101 87.4444 33.0407 86.7076C33.5634 86.2878 33.9767 85.7504 34.246 85.1405C34.5153 84.5305 34.6329 83.8657 34.5888 83.2017V82.9499C34.572 82.4385 34.4149 81.9412 34.1344 81.5111C33.8539 81.081 33.4605 80.7342 32.9962 80.5077C32.6792 80.3474 32.3323 80.2531 31.9769 80.2307C31.6291 80.2106 31.2811 80.2665 30.9576 80.3944C30.5615 80.5548 30.2239 80.8302 29.9896 81.1843C29.7553 81.5383 29.6352 81.9542 29.6453 82.3771C29.6457 82.4301 29.6583 82.4823 29.682 82.5299C29.7057 82.5774 29.7399 82.619 29.7822 82.6517C29.8244 82.6844 29.8735 82.7072 29.9259 82.7185C29.9784 82.7298 30.0327 82.7293 30.0849 82.717C30.3317 82.6139 30.6012 82.5748 30.8676 82.6035C31.1341 82.6321 31.3887 82.7275 31.6074 82.8806L31.6775 82.9499C31.7358 83.0281 31.7751 83.1186 31.7921 83.2143C31.8181 83.3645 31.8027 83.5188 31.7476 83.6611C31.5769 83.9825 31.3269 84.256 31.0206 84.4563C30.7143 84.6566 30.3617 84.7771 29.9957 84.8067C29.5772 84.8979 29.1454 84.9129 28.7216 84.8507C28.1071 84.7587 27.5405 84.4689 27.1098 84.0262C26.8064 83.7181 26.5701 83.3517 26.4155 82.9499C26.3423 82.7602 26.2868 82.5642 26.2498 82.3645C26.1573 81.8524 26.1573 81.3282 26.2498 80.8161C26.2948 80.3753 26.4311 79.9482 26.6503 79.5616C26.8695 79.1751 27.1669 78.8372 27.5239 78.5691C28.1977 78.1316 28.9924 77.9117 29.7982 77.9397C29.8805 77.9338 29.9585 77.9009 30.0197 77.8461C30.0809 77.7914 30.1218 77.7179 30.1358 77.6375C30.1622 77.4528 30.2005 77.2699 30.2505 77.0899C30.3819 76.5264 30.6922 76.0192 31.136 75.6423C31.673 75.2595 32.2848 74.9916 32.9325 74.8555C32.9325 74.8555 32.9771 74.8555 32.9898 74.8555C33.5927 74.911 34.1597 75.1632 34.6015 75.5723C35.0433 75.9814 35.3347 76.5243 35.4297 77.1151C35.4957 77.4051 35.5383 77.6997 35.5571 77.9963C38.8761 78.3739 39.9655 80.6776 39.0927 82.9499C38.6254 84.083 37.8409 85.0612 36.8312 85.7697C36.2961 89.1749 34.283 90.8932 30.8238 90.9499C29.8109 93.6438 28.0718 95.3558 25.1604 95.5006H24.3132C23.7461 95.4796 23.1817 95.4143 22.625 95.3055Z" fill="white"/>
<path id="Vector_5" d="M25.1281 76.9501L24.956 77.1138C24.3215 77.7489 23.8479 78.5231 23.5737 79.3734L22.7519 77.1138L12.9795 49.9541C12.6841 49.3211 12.4515 48.6613 12.2852 47.9839C12.2852 47.5937 12.5272 47.2601 13.0496 45.8061L22.7519 18.8856C23.0385 18.1303 23.3061 17.375 23.5737 16.626C23.8479 17.4763 24.3215 18.2505 24.956 18.8856L25.1281 19.0493C25.7255 19.5897 26.4188 20.0164 27.173 20.3081C27.1592 20.8488 27.2412 21.3877 27.4151 21.9006C27.5959 22.4008 27.8752 22.8608 28.2369 23.2538L20.9299 44.8054C20.9211 44.8679 20.9256 44.9315 20.9432 44.9922C20.9607 45.0529 20.9909 45.1093 21.0318 45.1578C21.5759 45.6376 21.9676 46.2628 22.1594 46.958C22.2231 47.2886 22.2231 47.6282 22.1594 47.9588C22.2233 48.2957 22.2233 48.6415 22.1594 48.9785C21.9702 49.6711 21.5779 50.293 21.0318 50.766C20.9504 50.8696 20.9138 51.0009 20.9299 51.1311L28.2369 72.6826C27.8752 73.0756 27.5959 73.5356 27.4151 74.0359C27.2412 74.5487 27.1592 75.0876 27.173 75.6283C26.4138 75.9389 25.7202 76.3872 25.1281 76.9501Z" fill="white"/>
<path id="Vector_6" d="M2.18239 46.712C1.99865 47.0983 1.72855 47.4384 1.39246 47.7065C1.20251 47.2298 0.908939 46.8 0.532454 46.4477C0.462379 46.3973 0.405046 46.3218 0.334971 46.2715C0.241281 46.1968 0.151962 46.1169 0.0674208 46.0323C-0.0599891 45.9064 0.010077 45.8371 0.137487 45.3588C0.188865 45.1713 0.222963 44.9796 0.239398 44.786C0.252142 44.6562 0.252142 44.5255 0.239398 44.3957C0.701605 44.3117 1.1787 44.3666 1.60907 44.5531C1.90591 44.6566 2.15345 44.865 2.30401 45.1381C2.45458 45.4112 2.49749 45.7298 2.42447 46.0323C2.37511 46.2686 2.29367 46.4972 2.18239 46.712Z" fill="white"/>
<path id="Vector_7" d="M2.80749 48.9906C2.6172 48.6298 2.37944 48.2954 2.10038 47.9962C2.04304 47.8892 2.27237 47.8703 2.80749 47.008C2.97755 46.7116 3.08382 46.3838 3.11964 46.0449C3.12658 46.0075 3.12658 45.9691 3.11964 45.9316C3.27253 45.9757 3.39995 46.0009 3.52736 46.0449C3.9898 46.1312 4.40723 46.3743 4.70756 46.7323C5.00789 47.0903 5.17224 47.5406 5.17224 48.0056C5.17224 48.4706 5.00789 48.9209 4.70756 49.2789C4.40723 49.6369 3.9898 49.88 3.52736 49.9663C3.39995 50.0103 3.27253 50.0355 3.11964 50.0796C3.12703 50.0422 3.12703 50.0037 3.11964 49.9663C3.07399 49.6256 2.96835 49.2954 2.80749 48.9906Z" fill="white"/>
<path id="Vector_8" d="M0.239398 51.2125C0.222427 51.019 0.188338 50.8274 0.137487 50.6398C0.010077 50.1677 -0.0599891 50.0985 0.0674208 49.9726C0.151962 49.8879 0.241281 49.8081 0.334971 49.7334C0.405046 49.683 0.462379 49.6075 0.532454 49.5508C0.912583 49.2016 1.20675 48.7709 1.39246 48.292C1.72638 48.5673 1.99589 48.9109 2.18239 49.2991C2.29452 49.5091 2.37602 49.7337 2.42447 49.9663C2.49749 50.2688 2.45458 50.5873 2.30401 50.8604C2.15345 51.1336 1.90591 51.3419 1.60907 51.4454C1.1787 51.632 0.701605 51.6868 0.239398 51.6028C0.251755 51.473 0.251755 51.3423 0.239398 51.2125Z" fill="white"/>
</g>
</svg>
