<svg width="31" height="25" viewBox="0 0 31 25" fill="none" xmlns="http://www.w3.org/2000/svg">
<path id="Vector" d="M15.135 0.412109C13.7182 0.693726 12.3834 1.29296 11.2302 2.16499C10.077 3.03703 9.13529 4.15928 8.4756 5.44781V5.59067H8.3153C5.41704 6.58569 2.89764 8.45731 1.10395 10.9478L0 12.4121L1.10395 13.8764C2.89764 16.3669 5.41704 18.2385 8.3153 19.2335H8.4756V19.3943C9.13312 20.6826 10.0744 21.804 11.2282 22.6734C12.382 23.5428 13.718 24.1374 15.135 24.4121H15.4555H15.7938C17.2094 24.1399 18.5441 23.5462 19.6954 22.6763C20.8467 21.8065 21.784 20.6838 22.4354 19.3943L22.5244 19.2335H22.6846C25.578 18.2292 28.0949 16.3595 29.896 13.8764L31 12.4121L29.896 10.9478C28.0949 8.46474 25.578 6.59504 22.6846 5.59067H22.5244L22.4354 5.44781C21.7807 4.15897 20.8427 3.03605 19.6922 2.16374C18.5417 1.29142 17.2087 0.69249 15.7938 0.412109H15.4555H15.135ZM15.5979 5.32281C16.2555 5.58375 16.8482 5.98595 17.3342 6.50114C17.8202 7.01634 18.1879 7.63205 18.4112 8.30497L18.8208 9.76925L20.3165 10.0193C21.8829 10.3419 23.3234 11.1107 24.4652 12.2335L24.8035 12.5371L24.4652 12.8407C23.3264 13.9476 21.8911 14.6984 20.3343 15.0014L18.8386 15.2514L18.4291 16.7157C18.2038 17.3925 17.8337 18.0117 17.3446 18.53C16.8556 19.0482 16.2594 19.4529 15.5979 19.7157H15.4555H15.3308C14.6693 19.4529 14.0732 19.0482 13.5841 18.53C13.0951 18.0117 12.7249 17.3925 12.4997 16.7157L12.0902 15.2514L10.5945 15.0014C9.03759 14.6984 7.60232 13.9476 6.46353 12.8407L6.12522 12.5371L6.46353 12.2335C7.60473 11.1299 9.03895 10.3797 10.5945 10.0728L12.0902 9.82282L12.4997 8.35854C12.725 7.68384 13.0954 7.06702 13.5846 6.5517C14.0738 6.03639 14.6699 5.63516 15.3308 5.37639H15.4555L15.5979 5.32281Z" fill="white"/>
</svg>
