<svg width="40" height="96" viewBox="0 0 40 96" fill="none" xmlns="http://www.w3.org/2000/svg">
<g id="Group 280">
<path id="Vector" d="M11.8797 75.8726C11.884 75.9443 11.9067 76.0137 11.9457 76.0743C11.9847 76.1349 12.0388 76.1846 12.1027 76.2188C12.702 76.4306 13.2649 76.7321 13.7717 77.1126C13.8992 77.2133 14.0266 77.3203 14.154 77.4336C14.9684 78.1869 15.5138 79.1807 15.7084 80.266C15.855 81.1595 15.8072 82.0736 15.5682 82.9473C15.5077 83.1795 15.4354 83.4085 15.3517 83.6334C14.9725 84.6172 14.401 85.5176 13.6698 86.2833C13.6056 86.3501 13.5709 86.4393 13.5733 86.5314C13.5757 86.6235 13.615 86.7108 13.6826 86.7743C13.7502 86.8377 13.8405 86.872 13.9336 86.8697C14.0268 86.8673 14.1153 86.8284 14.1795 86.7617C14.9711 85.9248 15.5899 84.9435 16.0014 83.8726C16.1144 83.5697 16.2101 83.2608 16.2881 82.9473C16.4716 82.1702 16.5232 81.3683 16.441 80.5744C16.4856 80.5744 16.5111 80.4926 16.5429 80.4486L17.7406 77.1126C21.1382 67.667 24.5358 58.2131 27.9334 48.7507C28.0411 48.5115 28.1079 48.2562 28.1309 47.9954C28.1091 47.7167 28.0379 47.444 27.9206 47.1897C24.523 37.7525 21.1254 28.3111 17.7278 18.8656L16.5302 15.5296C16.5087 15.4791 16.4734 15.4356 16.4283 15.4037C16.5105 14.6098 16.4588 13.808 16.2754 13.0308C16.1974 12.7174 16.1017 12.4084 15.9887 12.1055C15.5772 11.0347 14.9583 10.0534 14.1667 9.2165C14.1025 9.14973 14.0141 9.11087 13.9209 9.10851C13.8277 9.10615 13.7374 9.14047 13.6698 9.2039C13.6023 9.26734 13.5629 9.3547 13.5605 9.44677C13.5581 9.53885 13.5929 9.62806 13.6571 9.69483C14.3896 10.4595 14.9613 11.3602 15.3389 12.3447C15.4227 12.5697 15.495 12.7987 15.5555 13.0308C15.7944 13.9025 15.8421 14.8145 15.6956 15.7059C15.501 16.793 14.9557 17.7888 14.1412 18.5446C14.0138 18.6578 13.8864 18.7523 13.759 18.8656C13.2507 19.2438 12.6882 19.5451 12.09 19.7594C12.026 19.7936 11.972 19.8433 11.933 19.9039C11.894 19.9644 11.8712 20.0339 11.867 20.1056C11.9162 20.6391 11.8533 21.177 11.6822 21.6854C11.5096 22.1573 11.2358 22.5867 10.8796 22.9443C10.802 23.0495 10.7699 23.1807 10.7904 23.3093L18.0782 44.842C17.5158 45.387 17.1131 46.072 16.9124 46.8247C16.8529 47.0869 16.8272 47.3554 16.836 47.624H16.9379C16.9379 47.7499 16.8806 47.8758 16.8678 47.9828C16.885 48.1014 16.9084 48.219 16.9379 48.3353H16.836C16.8263 48.6122 16.852 48.8892 16.9124 49.1598C17.1131 49.9124 17.5158 50.5975 18.0782 51.1425L10.7904 72.6751C10.7699 72.8037 10.802 72.935 10.8796 73.0402C11.2358 73.3978 11.5096 73.8272 11.6822 74.2991C11.8567 74.8046 11.9239 75.3403 11.8797 75.8726ZM12.3448 74.0725C12.164 73.5722 11.8847 73.1122 11.523 72.7192L18.8299 51.1677C18.846 51.0375 18.8094 50.9062 18.728 50.8026C18.182 50.3296 17.7897 49.7077 17.6004 49.0151C17.5365 48.6781 17.5365 48.3323 17.6004 47.9954C17.5367 47.6648 17.5367 47.3252 17.6004 46.9946C17.7922 46.2994 18.1839 45.6742 18.728 45.1944C18.7689 45.1459 18.7991 45.0895 18.8167 45.0288C18.8342 44.9681 18.8387 44.9045 18.8299 44.842L11.523 23.2904C11.8847 22.8974 12.164 22.4374 12.3448 21.9372C12.5187 21.4243 12.6006 20.8854 12.5868 20.3447C13.3411 20.053 14.0344 19.6263 14.6318 19.0859L14.8038 18.9222C15.4383 18.2871 15.912 17.5129 16.1862 16.6626C16.4537 17.4116 16.7213 18.1669 17.008 18.9222L26.7103 45.8427C27.2326 47.2967 27.4874 47.6303 27.4747 48.0205C27.3083 48.6979 27.0758 49.3577 26.7803 49.9907L17.008 77.1378L16.1862 79.3974C15.912 78.5471 15.4383 77.7729 14.8038 77.1378L14.6318 76.9741C14.0344 76.4337 13.3411 76.007 12.5868 75.7153C12.6066 75.1577 12.5246 74.6013 12.3448 74.0725Z" fill="white"/>
<path id="Vector_2" d="M10.2887 77.1144L10.3333 77.2844C11.1788 77.2982 12.0029 77.5492 12.7095 78.0082C13.1384 78.3295 13.4961 78.7343 13.7602 79.1977C14.0243 79.6611 14.1892 80.1732 14.2448 80.7021C14.3665 81.2962 14.3665 81.9083 14.2448 82.5023C14.2149 82.6533 14.1766 82.8024 14.1301 82.9492C13.9447 83.5347 13.6266 84.0707 13.2 84.5165C12.6546 85.0507 11.9522 85.4009 11.1933 85.5173C10.69 85.6028 10.1745 85.5878 9.67713 85.4732C9.19616 85.4217 8.73596 85.2518 8.33864 84.9791C7.94132 84.7064 7.61956 84.3396 7.40286 83.9122C7.30682 83.6483 7.2784 83.3651 7.32008 83.0877L7.36464 82.9492C7.43367 82.7371 7.55396 82.5449 7.71504 82.389C7.94431 82.1966 8.21478 82.0581 8.50611 81.9839C8.79743 81.9098 9.10199 81.9019 9.39682 81.961C9.3469 81.7534 9.24823 81.5603 9.10878 81.3974C8.96934 81.2345 8.79307 81.1063 8.59417 81.0232C8.36576 80.9335 8.11847 80.9011 7.87431 80.9288C7.6082 80.9384 7.34738 81.005 7.10984 81.1239C6.76497 81.2967 6.47251 81.5566 6.26216 81.8772C6.05182 82.1978 5.93107 82.5676 5.91218 82.9492V83.201C5.86765 83.759 5.96023 84.3194 6.18207 84.8345C6.4039 85.3495 6.74842 85.8041 7.18628 86.1593C8.25517 86.8265 9.51156 87.1396 10.7729 87.0531C10.8388 87.063 10.9019 87.0866 10.9579 87.1224C11.0139 87.1582 11.0616 87.2054 11.0978 87.2608C11.5772 88.3457 12.3566 89.2751 13.3465 89.9421C14.4029 90.5929 15.6076 90.9716 16.8503 91.0436C17.0555 89.1874 17.4832 87.3619 18.1244 85.6054L19.0545 82.9492L21.1058 77.1144L29.8079 52.3969C32.0376 53.1774 33.9933 53.0641 35.3184 50.7226C34.8723 50.3652 34.5223 49.9048 34.2991 49.382C33.85 49.9719 33.211 50.3931 32.4873 50.5761C31.7635 50.7592 30.9982 50.6932 30.3175 50.389C30.8029 49.6871 31.0625 48.8568 31.0625 48.0067C31.0625 47.1566 30.8029 46.3262 30.3175 45.6243C30.9982 45.3201 31.7635 45.2542 32.4873 45.4372C33.211 45.6203 33.85 46.0414 34.2991 46.6313C34.5223 46.1086 34.8723 45.6481 35.3184 45.2907C33.9933 42.9492 32.0376 42.8359 29.8079 43.6164L21.1058 18.8989L19.0545 13.0641L18.1244 10.4079C17.4832 8.65145 17.0555 6.82593 16.8503 4.96973C15.607 5.03882 14.4016 5.41776 13.3465 6.07122C12.3566 6.73827 11.5772 7.66759 11.0978 8.75254C11.0616 8.8079 11.0139 8.85507 10.9579 8.89088C10.9019 8.92669 10.8388 8.95032 10.7729 8.96026C9.51156 8.8737 8.25517 9.18678 7.18628 9.85403C6.74842 10.2093 6.4039 10.6638 6.18207 11.1788C5.96023 11.6939 5.86765 12.2543 5.91218 12.8123V13.0641C5.93107 13.4457 6.05182 13.8156 6.26216 14.1362C6.47251 14.4568 6.76497 14.7166 7.10984 14.8894C7.34738 15.0083 7.6082 15.0749 7.87431 15.0846C8.11837 15.1059 8.36419 15.0737 8.59417 14.9902C8.79307 14.907 8.96934 14.7788 9.10878 14.6159C9.24823 14.453 9.3469 14.2599 9.39682 14.0523C9.10155 14.112 8.79637 14.1038 8.50478 14.0285C8.2132 13.9532 7.94302 13.8128 7.71504 13.618C7.55298 13.4654 7.43244 13.2749 7.36464 13.0641L7.32008 12.9256C7.2784 12.6482 7.30682 12.365 7.40286 12.1011C7.62015 11.6736 7.94192 11.3064 8.33903 11.0328C8.73614 10.7591 9.19604 10.5876 9.67713 10.5338C10.1753 10.4246 10.6902 10.4118 11.1933 10.4961C11.9539 10.6073 12.6578 10.9583 13.2 11.4969C13.6266 11.9426 13.9447 12.4786 14.1301 13.0641C14.1766 13.2109 14.2149 13.3601 14.2448 13.511C14.3665 14.105 14.3665 14.7171 14.2448 15.3112C14.1892 15.8401 14.0243 16.3522 13.7602 16.8156C13.4961 17.279 13.1384 17.6839 12.7095 18.0051C12.0029 18.4641 11.1788 18.7152 10.3333 18.729L10.2887 18.8989C10.141 19.6706 9.73219 20.3698 9.12927 20.8816C8.65854 21.24 8.12206 21.505 7.5494 21.6621C10.191 29.341 12.8241 37.0221 15.4488 44.7053C14.6709 45.4881 14.2166 46.5296 14.1747 47.6259V47.7454V48.249V48.3623C14.2103 49.4673 14.6651 50.5188 15.4488 51.308C12.8157 58.987 10.1825 66.6681 7.5494 74.3513C8.12104 74.5109 8.65704 74.7757 9.12927 75.1317C9.73219 75.6436 10.141 76.3427 10.2887 77.1144ZM11.6902 74.2946C11.5176 73.8227 11.2438 73.3933 10.8875 73.0358C10.81 72.9305 10.7779 72.7993 10.7983 72.6707L18.0862 51.1381C17.5238 50.593 17.121 49.908 16.9204 49.1553C16.8599 48.8848 16.8343 48.6077 16.8439 48.3308H16.9459C16.9164 48.2146 16.893 48.0969 16.8758 47.9783C16.8758 47.8713 16.9204 47.7454 16.9459 47.6196H16.8439C16.8352 47.351 16.8609 47.0824 16.9204 46.8202C17.121 46.0676 17.5238 45.3825 18.0862 44.8375L10.7983 23.3048C10.7779 23.1763 10.81 23.045 10.8875 22.9398C11.2438 22.5823 11.5176 22.1528 11.6902 21.681C11.8613 21.1725 11.9242 20.6347 11.875 20.1011C11.8792 20.0294 11.9019 19.96 11.9409 19.8994C11.98 19.8388 12.034 19.7891 12.0979 19.7549C12.6962 19.5406 13.2587 19.2393 13.767 18.8611C13.8944 18.7478 14.0218 18.6534 14.1492 18.5401C14.9637 17.7843 15.509 16.7886 15.7036 15.7014C15.8501 14.81 15.8024 13.898 15.5635 13.0264C15.503 12.7942 15.4306 12.5652 15.3469 12.3403C14.9693 11.3557 14.3976 10.4551 13.6651 9.69042C13.6333 9.65735 13.6084 9.61842 13.5918 9.57586C13.5753 9.53329 13.5673 9.48791 13.5685 9.44232C13.5697 9.39673 13.58 9.3518 13.5987 9.31013C13.6175 9.26845 13.6444 9.23086 13.6778 9.19945C13.7113 9.16804 13.7507 9.14343 13.7938 9.12707C13.8368 9.1107 13.8828 9.10289 13.9289 9.10406C13.9751 9.10523 14.0205 9.11538 14.0627 9.13391C14.1048 9.15243 14.1429 9.17898 14.1747 9.21205C14.9663 10.0489 15.5852 11.0302 15.9967 12.1011C16.1096 12.404 16.2053 12.7129 16.2833 13.0264C16.4668 13.8035 16.5185 14.6054 16.4362 15.3993C16.4814 15.4311 16.5166 15.4747 16.5382 15.5252L17.7358 18.8611C21.1334 28.2857 24.531 37.7271 27.9286 47.1852C28.0459 47.4396 28.1171 47.7123 28.1388 47.9909C28.1159 48.2518 28.0491 48.507 27.9414 48.7462C24.5438 58.2128 21.1462 67.6668 17.7486 77.1081L16.5509 80.4441C16.5191 80.4882 16.4936 80.5448 16.449 80.57C16.5312 81.3639 16.4795 82.1657 16.2961 82.9429C16.2181 83.2564 16.1224 83.5653 16.0094 83.8682C15.5979 84.939 14.979 85.9203 14.1874 86.7572C14.1232 86.824 14.0348 86.8628 13.9416 86.8652C13.8484 86.8676 13.7582 86.8332 13.6906 86.7698C13.623 86.7064 13.5837 86.619 13.5813 86.5269C13.5789 86.4349 13.6136 86.3457 13.6778 86.2789C14.409 85.5132 14.9805 84.6128 15.3596 83.629C15.4434 83.404 15.5157 83.175 15.5762 82.9429C15.8152 82.0691 15.863 81.155 15.7164 80.2616C15.5218 79.1762 14.9764 78.1825 14.162 77.4292C14.0346 77.3159 13.9071 77.2089 13.7797 77.1081C13.2729 76.7276 12.71 76.4262 12.1107 76.2143C12.0467 76.1802 11.9927 76.1304 11.9537 76.0699C11.9147 76.0093 11.892 75.9398 11.8877 75.8682C11.934 75.3362 11.8689 74.8006 11.6966 74.2946H11.6902Z" fill="white"/>
<path id="Vector_3" d="M8.70192 20.371C9.1457 19.994 9.45596 19.4868 9.58743 18.9233C9.63853 18.7394 9.67683 18.5522 9.70209 18.3631C9.71958 18.2855 9.76181 18.2154 9.82259 18.1633C9.88337 18.1112 9.95947 18.0797 10.0397 18.0735C10.8455 18.1015 11.6402 17.8816 12.314 17.4441C12.671 17.176 12.9684 16.8382 13.1876 16.4516C13.4068 16.065 13.5431 15.638 13.5881 15.1971C13.6806 14.685 13.6806 14.1608 13.5881 13.6487C13.5511 13.449 13.4956 13.2531 13.4224 13.0633C13.2678 12.6615 13.0315 12.2952 12.7281 11.987C12.2974 11.5443 11.7308 11.2545 11.1163 11.1625C10.6925 11.1003 10.2607 11.1153 9.84223 11.2065C9.47616 11.2361 9.12361 11.3566 8.81732 11.5569C8.51104 11.7572 8.26095 12.0307 8.09034 12.3521C8.03518 12.4944 8.01978 12.6487 8.04574 12.799C8.0628 12.8946 8.10205 12.9851 8.16041 13.0633L8.23051 13.1326C8.44918 13.2857 8.70379 13.3811 8.97025 13.4097C9.23671 13.4384 9.50615 13.3993 9.75303 13.2962C9.8053 13.2826 9.86005 13.2811 9.91299 13.2919C9.96593 13.3027 10.0156 13.3255 10.0582 13.3584C10.1008 13.3913 10.1351 13.4335 10.1584 13.4817C10.1817 13.5298 10.1934 13.5827 10.1926 13.6361C10.2027 14.059 10.0826 14.4749 9.84829 14.829C9.61397 15.183 9.27641 15.4584 8.88027 15.6188C8.55218 15.7457 8.20027 15.8012 7.84849 15.7817C7.49671 15.7621 7.15337 15.668 6.84175 15.5055C6.3774 15.279 5.98399 14.9322 5.7035 14.5021C5.42302 14.072 5.26597 13.5747 5.24912 13.0633V12.8116C5.20505 12.1475 5.32259 11.4827 5.59191 10.8727C5.86124 10.2628 6.27452 9.72543 6.79715 9.30565C7.9292 8.57078 9.26608 8.20535 10.6194 8.26082C11.1507 7.14106 11.9811 6.1857 13.0211 5.49764C14.1699 4.77805 15.4854 4.35994 16.8434 4.28285C16.7805 3.07948 16.9051 1.8737 17.2129 0.707721C16.6816 0.598856 16.1429 0.529414 15.6012 0.5H14.7539C11.8426 0.651062 10.1034 2.38828 9.09051 5.06333C5.62496 5.11998 3.61826 6.8383 3.08314 10.2435C2.07344 10.952 1.28898 11.9302 0.821625 13.0633C-0.0511341 15.3356 1.03821 17.6393 4.35724 18.0169C4.37601 18.3135 4.41862 18.6082 4.48466 18.8981C4.57967 19.4889 4.87103 20.0318 5.31281 20.4409C5.75459 20.8501 6.32162 21.1022 6.92453 21.1577C6.92453 21.1577 6.96914 21.1577 6.98188 21.1577C7.60276 21.0119 8.18769 20.7444 8.70192 20.371Z" fill="white"/>
<path id="Vector_4" d="M17.1367 95.3055C16.829 94.1395 16.7043 92.9337 16.7672 91.7304C15.4098 91.6505 14.0949 91.2326 12.9449 90.5156C11.9044 89.8226 11.0742 88.8632 10.5433 87.7398C9.19051 87.8059 7.85162 87.4444 6.72098 86.7076C6.19834 86.2878 5.78507 85.7504 5.51574 85.1405C5.24641 84.5305 5.12884 83.8657 5.17291 83.2017V82.9499C5.18976 82.4385 5.34685 81.9412 5.62733 81.5111C5.90782 81.081 6.30119 80.7342 6.76554 80.5077C7.08251 80.3474 7.42947 80.2531 7.78484 80.2307C8.13264 80.2106 8.48065 80.2665 8.8041 80.3944C9.20024 80.5548 9.5378 80.8302 9.77212 81.1843C10.0064 81.5383 10.1265 81.9542 10.1164 82.3771C10.116 82.4301 10.1035 82.4823 10.0798 82.5299C10.0561 82.5774 10.0218 82.619 9.97956 82.6517C9.93731 82.6844 9.88818 82.7072 9.83577 82.7185C9.78336 82.7298 9.72903 82.7293 9.67686 82.717C9.42998 82.6139 9.16053 82.5748 8.89408 82.6035C8.62762 82.6321 8.37301 82.7275 8.15434 82.8806L8.08423 82.9499C8.02587 83.0281 7.98663 83.1186 7.96957 83.2143C7.94361 83.3645 7.95901 83.5188 8.01417 83.6611C8.18478 83.9825 8.43486 84.256 8.74115 84.4563C9.04744 84.6566 9.39998 84.7771 9.76605 84.8067C10.1845 84.8979 10.6163 84.9129 11.0402 84.8507C11.6546 84.7587 12.2212 84.4689 12.6519 84.0262C12.9553 83.7181 13.1916 83.3517 13.3463 82.9499C13.4195 82.7602 13.4749 82.5642 13.5119 82.3645C13.6044 81.8524 13.6044 81.3282 13.5119 80.8161C13.4669 80.3753 13.3307 79.9482 13.1115 79.5616C12.8923 79.1751 12.5949 78.8372 12.2378 78.5691C11.564 78.1316 10.7693 77.9117 9.96354 77.9397C9.88119 77.9338 9.80318 77.9009 9.74199 77.8461C9.68079 77.7914 9.63994 77.7179 9.62592 77.6375C9.59947 77.4528 9.56118 77.2699 9.51126 77.0899C9.37979 76.5264 9.06953 76.0192 8.62575 75.6423C8.08875 75.2595 7.47691 74.9916 6.82927 74.8555C6.82927 74.8555 6.78465 74.8555 6.77191 74.8555C6.16901 74.911 5.60198 75.1632 5.1602 75.5723C4.71842 75.9814 4.42705 76.5243 4.33204 77.1151C4.26601 77.4051 4.2234 77.6997 4.20463 77.9963C0.885599 78.3739 -0.203749 80.6776 0.66901 82.9499C1.13636 84.083 1.92082 85.0612 2.93053 85.7697C3.46565 89.1749 5.47872 90.8932 8.9379 90.9499C9.95081 93.6438 11.69 95.3558 14.6013 95.5006H15.4485C16.0156 95.4796 16.5801 95.4143 17.1367 95.3055Z" fill="white"/>
<path id="Vector_5" d="M14.6337 76.9501L14.8057 77.1138C15.4402 77.7489 15.9138 78.5231 16.1881 79.3734L17.0098 77.1138L26.7822 49.9541C27.0776 49.3211 27.3102 48.6613 27.4766 47.9839C27.4766 47.5937 27.2345 47.2601 26.7121 45.8061L17.0098 18.8856C16.7232 18.1303 16.4556 17.375 16.1881 16.626C15.9138 17.4763 15.4402 18.2505 14.8057 18.8856L14.6337 19.0493C14.0362 19.5897 13.343 20.0164 12.5887 20.3081C12.6025 20.8488 12.5206 21.3877 12.3466 21.9006C12.1658 22.4008 11.8866 22.8608 11.5249 23.2538L18.8318 44.8054C18.8406 44.8679 18.8361 44.9315 18.8185 44.9922C18.801 45.0529 18.7708 45.1093 18.7299 45.1578C18.1858 45.6376 17.7941 46.2628 17.6023 46.958C17.5386 47.2886 17.5386 47.6282 17.6023 47.9588C17.5384 48.2957 17.5384 48.6415 17.6023 48.9785C17.7915 49.6711 18.1839 50.293 18.7299 50.766C18.8113 50.8696 18.8479 51.0009 18.8318 51.1311L11.5249 72.6826C11.8866 73.0756 12.1658 73.5356 12.3466 74.0359C12.5206 74.5487 12.6025 75.0876 12.5887 75.6283C13.3479 75.9389 14.0415 76.3872 14.6337 76.9501Z" fill="white"/>
<path id="Vector_6" d="M37.5793 46.712C37.7631 47.0983 38.0332 47.4384 38.3693 47.7065C38.5592 47.2298 38.8528 46.8 39.2293 46.4477C39.2993 46.3973 39.3567 46.3218 39.4267 46.2715C39.5204 46.1968 39.6098 46.1169 39.6943 46.0323C39.8217 45.9064 39.7516 45.8371 39.6242 45.3588C39.5729 45.1713 39.5388 44.9796 39.5223 44.786C39.5096 44.6562 39.5096 44.5255 39.5223 44.3957C39.0601 44.3117 38.583 44.3666 38.1526 44.5531C37.8558 44.6566 37.6083 44.865 37.4577 45.1381C37.3071 45.4112 37.2642 45.7298 37.3372 46.0323C37.3866 46.2686 37.468 46.4972 37.5793 46.712Z" fill="white"/>
<path id="Vector_7" d="M36.9542 48.9906C37.1445 48.6298 37.3823 48.2954 37.6613 47.9962C37.7187 47.8892 37.4893 47.8703 36.9542 47.008C36.7842 46.7116 36.6779 46.3838 36.6421 46.0449C36.6351 46.0075 36.6351 45.9691 36.6421 45.9316C36.4892 45.9757 36.3618 46.0009 36.2344 46.0449C35.7719 46.1312 35.3545 46.3743 35.0542 46.7323C34.7538 47.0903 34.5895 47.5406 34.5895 48.0056C34.5895 48.4706 34.7538 48.9209 35.0542 49.2789C35.3545 49.6369 35.7719 49.88 36.2344 49.9663C36.3618 50.0103 36.4892 50.0355 36.6421 50.0796C36.6347 50.0422 36.6347 50.0037 36.6421 49.9663C36.6877 49.6256 36.7934 49.2954 36.9542 48.9906Z" fill="white"/>
<path id="Vector_8" d="M39.5223 51.2125C39.5393 51.019 39.5734 50.8274 39.6242 50.6398C39.7516 50.1677 39.8217 50.0985 39.6943 49.9726C39.6098 49.8879 39.5204 49.8081 39.4267 49.7334C39.3567 49.683 39.2993 49.6075 39.2293 49.5508C38.8491 49.2016 38.555 48.7709 38.3693 48.292C38.0353 48.5673 37.7658 48.9109 37.5793 49.2991C37.4672 49.5091 37.3857 49.7337 37.3372 49.9663C37.2642 50.2688 37.3071 50.5873 37.4577 50.8604C37.6083 51.1336 37.8558 51.3419 38.1526 51.4454C38.583 51.632 39.0601 51.6868 39.5223 51.6028C39.51 51.473 39.51 51.3423 39.5223 51.2125Z" fill="white"/>
</g>
</svg>
